<svg xmlns:xodm="http://www.corel.com/coreldraw/odm/2003" xmlns:xlink="http://www.w3.org/1999/xlink" xmlns="http://www.w3.org/2000/svg" width="84.6666mm" height="16.9332mm" version="1.1" style="shape-rendering: geometricPrecision; text-rendering: geometricPrecision; image-rendering: optimizeQuality; fill-rule: evenodd; clip-rule: evenodd" viewBox="0 0 8466.66 1693.32">
 <defs>
  <style type="text/css">
   
    .fil0 {fill:#BDBFC1}
    .fil3 {fill:#FDCC8F;fill-rule:nonzero}
    .fil2 {fill:#FAAC4D;fill-rule:nonzero}
    .fil1 {fill:#E8E7E8;fill-rule:nonzero}
   
  </style>

 </defs>
 <g id="Camada_x0020_1">
  <!-- metadata ignored -->
  <g id="_2985002351440">
   <path class="fil0" d="M1815.09 846.54c0,-126.92 -103.23,-229.99 -230.26,-229.99 -127.23,0 -230.36,103.07 -230.36,229.99 0,127.2 103.13,230.29 230.36,230.29 127.03,0 230.26,-103.09 230.26,-230.29zm230.18 0c0,-254.19 -206.14,-460.03 -460.44,-460.03 -254.4,0 -460.71,205.84 -460.71,460.03 0,254.24 206.31,460.38 460.71,460.38 254.3,0 460.44,-206.14 460.44,-460.38z" />
   <path class="fil0" d="M4578.34 846.54c0,-126.92 -102.91,-229.99 -230.25,-229.99 -126.95,0 -230.08,103.07 -230.08,229.99 0,127.2 103.13,230.29 230.08,230.29 127.34,0 230.25,-103.09 230.25,-230.29zm-460.33 575.47l0 -176.78c180.43,104.02 408.26,74.08 555.58,-73.32 147.29,-147.22 177.16,-374.88 73.06,-555.18 -104.26,-180.37 -316.65,-268.14 -517.85,-214.44 -201.36,54.04 -341.21,236.16 -341.06,444.25l0 575.47c0,41.17 21.82,79.06 57.4,99.57 35.71,20.54 79.5,20.54 115.27,0 35.63,-20.51 57.6,-58.4 57.6,-99.57z" />
   <path class="fil0" d="M989.44 521.24c-131.75,-131.46 -329.8,-170.74 -501.91,-99.34 -171.78,71.26 -283.94,239.11 -283.73,425 0.08,186.03 112.33,353.72 284.33,424.82 172.11,71.13 369.7,31.98 501.31,-99.68 28.93,-28.91 40.36,-71.24 29.61,-111.04 -10.62,-39.77 -41.75,-70.81 -81.48,-81.45 -39.68,-10.5 -81.97,0.76 -111.12,29.88 -65.88,65.87 -164.88,85.58 -251.08,49.94 -86.01,-35.51 -142.32,-119.41 -142.43,-212.65 0,-93.06 56.25,-177.18 142.21,-212.75 86.15,-35.78 185.31,-15.79 251.3,49.98 29.15,29.04 71.44,40.29 111.12,29.78 39.73,-10.59 70.86,-41.74 81.48,-81.43 10.75,-39.72 -0.68,-82.03 -29.61,-111.06z" />
   <path class="fil0" d="M5154.28 501.56l0 345c0,82.29 43.77,158.31 114.94,199.29 71.29,41.15 159.07,41.15 230.33,0 71.27,-40.98 115.13,-117 115.13,-199.29l0 -345c0,-41.16 21.92,-79.25 57.61,-99.68 35.53,-20.56 79.44,-20.56 115.15,0 35.42,20.43 57.55,58.52 57.55,99.68l0 345c0,164.51 -87.72,316.51 -230.31,398.65 -142.53,82.27 -318.07,82.27 -460.4,0 -142.62,-82.14 -230.45,-234.14 -230.45,-398.65l0 -345c0,-41.16 21.91,-79.25 57.55,-99.68 35.69,-20.56 79.6,-20.56 115.15,0 35.71,20.43 57.75,58.52 57.75,99.68z" />
   <path class="fil0" d="M7010.07 789.17c22.65,-0.11 43.32,-13.51 52.45,-34.39 9.12,-20.62 5.59,-44.68 -9.67,-61.47 -43.74,-48.84 -106.28,-76.76 -171.68,-76.61 -65.7,0 -127.87,27.63 -171.57,76.61 -15.15,16.9 -18.81,41.1 -9.5,61.86 9.39,20.53 29.56,34.05 52.5,34l257.47 0zm-257.47 115.01l469.2 0c33.87,-0.11 66.03,-15.02 88,-40.92 22,-25.83 31.27,-59.88 25.54,-93.32 -35.48,-209.31 -209.54,-367.14 -421.52,-382.13 -211.85,-15.11 -406.41,116.76 -471.08,319.17 -64.59,202.16 17.76,422.31 199.21,532.76 181.4,110.23 414.71,82.35 564.87,-67.7 29.09,-28.89 40.54,-71.24 29.9,-111.12 -10.59,-39.66 -41.72,-70.73 -81.39,-81.35 -39.72,-10.57 -82.03,0.74 -111.23,29.83 -44.62,44.67 -105.81,69.07 -169.15,67.32 -63.25,-1.55 -123.16,-29.63 -165.35,-76.68 -15.15,-16.88 -19.11,-40.98 -9.88,-61.74 9.13,-20.76 30.01,-34.05 52.88,-34.12z" />
   <path class="fil0" d="M8066.23 420l-263.91 263.97 -263.91 -263.97c-29.14,-29.03 -71.56,-40.47 -111.24,-29.63 -39.71,10.63 -70.84,41.74 -81.43,81.45 -10.73,39.52 0.69,81.97 29.58,111.03l264.34 263.69 -264.34 263.87c-28.89,29.09 -40.31,71.33 -29.58,111.15 10.59,39.77 41.72,70.7 81.43,81.45 39.68,10.5 82.1,-0.74 111.24,-29.94l263.91 -263.66 263.91 263.66c29.38,29.2 71.57,40.44 111.41,29.94 39.62,-10.75 70.64,-41.68 81.26,-81.45 10.7,-39.82 -0.7,-82.06 -29.83,-111.15l-263.85 -263.87 263.85 -263.69c29.13,-29.06 40.53,-71.51 29.83,-111.03 -10.62,-39.71 -41.64,-70.82 -81.26,-81.45 -39.84,-10.84 -82.03,0.6 -111.41,29.63z" />
   <path class="fil0" d="M6190.49 386.51l0 -115.17c0,-41.05 -22,-79.01 -57.6,-99.68 -35.58,-20.43 -79.46,-20.43 -115.32,0 -35.53,20.67 -57.44,58.63 -57.44,99.68l0 690.37c0,91.55 36.5,179.49 101.41,244.14 64.91,64.75 152.42,101.22 243.93,101.07 41.3,0 79.19,-22 99.82,-57.62 20.56,-35.62 20.56,-79.34 0,-115.01 -20.63,-35.53 -58.52,-57.46 -99.82,-57.46 -30.53,0 -59.9,-12.08 -81.38,-33.71 -21.57,-21.46 -33.6,-51.02 -33.6,-81.41l0 -345.16 114.98 0c41.3,0 79.19,-21.93 99.82,-57.51 20.56,-35.57 20.56,-79.5 0,-115.03 -20.63,-35.71 -58.52,-57.5 -99.82,-57.5l-114.98 0z" />
   <g>
    <path class="fil1" d="M3560.67 1180l0 124.75 -592.1 0 0 -433.45 166.93 -199.58c31.04,-37.08 69.27,-37.08 100.31,0l274.71 328.39c31.03,37.12 50.15,105.68 50.15,179.89z" />
    <polygon class="fil2" points="3786.18,1304.75 2968.57,1304.75 3560.67,1304.75 3560.67,1297.47 3786.18,1297.47" />
    <path class="fil2" d="M3786.18 1297.47l-225.51 0 0 -117.47c0,-74.21 -19.12,-142.77 -50.15,-179.89l-274.71 -328.39c-15.52,-18.56 -32.83,-27.83 -50.15,-27.83 -17.32,0 -34.64,9.27 -50.16,27.83l-166.93 199.58 0 -165.1 230.51 -275.57c21.43,-25.62 45.35,-38.44 69.26,-38.44 23.91,0 47.83,12.82 69.26,38.44l379.33 453.49c42.85,51.22 69.25,145.89 69.25,248.34l0 165.01z" />
    <path class="fil1" d="M2377.63 1180l0 124.75 592.1 0 0 -433.45 -166.93 -199.58c-31.04,-37.08 -69.28,-37.08 -100.31,0l-274.71 328.39c-31.03,37.12 -50.15,105.68 -50.15,179.89z" />
    <polygon class="fil2" points="2152.12,1304.75 2969.73,1304.75 2377.63,1304.75 2377.63,1297.47 2152.12,1297.47" />
    <path class="fil2" d="M2152.12 1297.47l225.51 0 0 -117.47c0,-74.21 19.12,-142.77 50.15,-179.89l274.71 -328.39c15.52,-18.56 32.83,-27.83 50.15,-27.83 17.32,0 34.64,9.27 50.16,27.83l166.93 199.58 0 -165.1 -230.51 -275.57c-21.43,-25.62 -45.35,-38.44 -69.26,-38.44 -23.91,0 -47.83,12.82 -69.26,38.44l-379.33 453.49c-42.86,51.22 -69.25,145.89 -69.25,248.34l0 165.01z" />
    <g>
     <path class="fil3" d="M3560.67 1304.75l-625.31 0 0.61 -410.98 175.69 -188.29c16.38,-17.56 34.67,-26.35 52.96,-26.35 18.3,0 36.58,8.79 52.97,26.35l290.11 310.88c32.78,35.14 52.97,100.04 52.97,170.29l0 118.1z" />
     <path class="fil3" d="M2377.63 1304.75l629.79 0 0 -410.33 -177.56 -188.93c-16.5,-17.57 -34.92,-26.36 -53.35,-26.36 -18.42,0 -36.84,8.79 -53.34,26.36l-292.19 310.87c-33.01,35.14 -53.35,100.04 -53.35,170.29l0 118.1z" />
    </g>
   </g>
  </g>
 </g>
</svg>